<!-- Icône blink Maskable - Fond coloré avec logo blanc (Android) -->
<svg width="512" height="512" viewBox="0 0 512 512" xmlns="http://www.w3.org/2000/svg">
  <defs>
    <!-- Gradient pour le background (maskable doit avoir background) -->
    <linearGradient id="bgGradientMask" x1="0%" y1="0%" x2="100%" y2="100%">
      <stop offset="0%" style="stop-color:#3B82F6;stop-opacity:1" />
      <stop offset="100%" style="stop-color:#2563EB;stop-opacity:1" />
    </linearGradient>
    
    <!-- Ombre douce -->
    <filter id="shadowMask" x="-50%" y="-50%" width="200%" height="200%">
      <feGaussianBlur in="SourceAlpha" stdDeviation="6"/>
      <feOffset dx="0" dy="3" result="offsetblur"/>
      <feComponentTransfer>
        <feFuncA type="linear" slope="0.2"/>
      </feComponentTransfer>
      <feMerge>
        <feMergeNode/>
        <feMergeNode in="SourceGraphic"/>
      </feMerge>
    </filter>
  </defs>
  
  <!-- Background circle complet (safe zone maskable) -->
  <circle cx="256" cy="256" r="256" fill="url(#bgGradientMask)"/>
  
  <!-- Forme de facture stylisée en arrière-plan -->
  <g opacity="0.15">
    <rect x="340" y="120" width="100" height="7" rx="3.5" fill="#FFFFFF"/>
    <rect x="340" y="145" width="85" height="5" rx="2.5" fill="#FFFFFF"/>
    <rect x="340" y="165" width="95" height="5" rx="2.5" fill="#FFFFFF"/>
    <rect x="340" y="200" width="100" height="35" rx="7" fill="#FFFFFF"/>
  </g>
  
  <!-- Lettre F stylisée en blanc (réduite pour safe zone) -->
  <g filter="url(#shadowMask)" transform="translate(256, 256) scale(0.85) translate(-256, -256)">
    <!-- Barre verticale du F -->
    <rect x="140" y="160" width="70" height="240" rx="10" fill="#FFFFFF"/>
    
    <!-- Barre horizontale supérieure -->
    <rect x="140" y="160" width="190" height="65" rx="10" fill="#FFFFFF"/>
    
    <!-- Barre horizontale du milieu -->
    <rect x="140" y="265" width="150" height="55" rx="10" fill="#FFFFFF"/>
    
    <!-- Point décoratif -->
    <circle cx="350" cy="355" r="18" fill="#FFFFFF"/>
  </g>
  
  <!-- Accent coloré orange -->
  <rect x="345" y="190" width="10" height="45" rx="5" fill="#F97316" opacity="0.9" transform="translate(256, 256) scale(0.85) translate(-256, -256)"/>
</svg>
